# xmcd
#
# Track frame offsets:
#	150
#	19076
#	44440
#	70622
#	90764
#	112712
#	133707
#	139059
#	155777
#
# Disc length: 2373 seconds
# Revision: 0
# Processed by: cddbd v1.5.2PL0 Copyright (c) Steve Scherf et al.
# Submitted via: dBpowerAMP V12.0
#
DISCID=6b094309
DTITLE=Bobby Long - Live At Arlenes Grocery
DYEAR=2009
DGENRE=Blues
TTITLE0=The Bounty Of Mary Jane
TTITLE1=This Strange Love
TTITLE2=Two Years Old
TTITLE3=Being A Mockingbird
TTITLE4=Penance Fire Blues
TTITLE5=Left To Lie
TTITLE6=Ode To Vicki
TTITLE7=Dead And Done
TTITLE8=Who Have You Been Loving
EXTD=
EXTT0=
EXTT1=
EXTT2=
EXTT3=
EXTT4=
EXTT5=
EXTT6=
EXTT7=
EXTT8=
PLAYORDER=
